<svg xmlns="http://www.w3.org/2000/svg" width="90" height="90" viewBox="0 0 90 90"><defs><clipPath id="8j4ga"><path d="M35.366 60.613c-.286 0-.575-.071-.833-.213a1.687 1.687 0 0 1-.888-1.476V25.14c0-.615.34-1.18.888-1.477a1.749 1.749 0 0 1 1.744.044L63.804 40.6c.503.308.809.852.809 1.433 0 .58-.306 1.125-.809 1.432L36.277 60.356a1.731 1.731 0 0 1-.911.257zm1.72-32.426v27.69l22.562-13.845zM45 73c-8.55 0-16.583-3.328-22.63-9.37C16.326 57.585 13 49.55 13 41.002c0-8.549 3.328-16.582 9.37-22.629C28.415 12.328 36.45 9 45 9c8.55 0 16.583 3.328 22.63 9.374 6.045 6.047 9.37 14.08 9.37 22.63 0 8.548-3.328 16.582-9.37 22.625C61.585 69.672 53.55 73 45 73zm0-60.632c-15.788 0-28.632 12.844-28.632 28.632 0 15.788 12.844 28.632 28.632 28.632 15.788 0 28.632-12.844 28.632-28.632 0-15.788-12.844-28.632-28.632-28.632z"/></clipPath></defs><g><g clip-path="url(#clip-EAEBF208-BE23-4B49-B964-1757A5FAC140)"><g><path d="M35.366 60.613c-.286 0-.575-.071-.833-.213a1.687 1.687 0 0 1-.888-1.476V25.14c0-.615.34-1.18.888-1.477a1.749 1.749 0 0 1 1.744.044L63.804 40.6c.503.308.809.852.809 1.433 0 .58-.306 1.125-.809 1.432L36.277 60.356a1.731 1.731 0 0 1-.911.257zm1.72-32.426v27.69l22.562-13.845zM45 73c-8.55 0-16.583-3.328-22.63-9.37C16.326 57.585 13 49.55 13 41.002c0-8.549 3.328-16.582 9.37-22.629C28.415 12.328 36.45 9 45 9c8.55 0 16.583 3.328 22.63 9.374 6.045 6.047 9.37 14.08 9.37 22.63 0 8.548-3.328 16.582-9.37 22.625C61.585 69.672 53.55 73 45 73zm0-60.632c-15.788 0-28.632 12.844-28.632 28.632 0 15.788 12.844 28.632 28.632 28.632 15.788 0 28.632-12.844 28.632-28.632 0-15.788-12.844-28.632-28.632-28.632z"/></g><g clip-path="url(#8j4ga)"><g><path fill="#fff" d="M13 9h192v192H13z"/></g></g></g></g></svg>