<?xml version="1.0" encoding="utf-8"?>
<!-- Generator: Adobe Illustrator 26.5.0, SVG Export Plug-In . SVG Version: 6.00 Build 0)  -->
<svg version="1.1" id="Layer_1" xmlns="http://www.w3.org/2000/svg" xmlns:xlink="http://www.w3.org/1999/xlink" x="0px" y="0px"
	 viewBox="0 0 22 23.2" style="enable-background:new 0 0 22 23.2;" xml:space="preserve">
<style type="text/css">
	.st0{fill:#FFFFFF;fill-opacity:0;stroke:#FFFFFF;stroke-width:0.75;}
	.st1{fill:none;stroke:#FFFFFF;stroke-width:0.5;stroke-miterlimit:10;}
</style>
<path class="st0" d="M8.9,0.7c1.4-0.3,2.8-0.3,4.2,0c0.2,0,0.3,0.2,0.4,0.4l0.6,2.8c0.8,0.3,1.5,0.8,2.2,1.2l2.7-1
	c0.2-0.1,0.4,0,0.5,0.1c1,1.1,1.6,2.3,2.1,3.6c0,0.3,0,0.5-0.2,0.6l-2.1,1.8c0.1,0.4,0.1,0.9,0.1,1.3c0,0.5,0,0.9-0.1,1.3l2.1,1.8
	c0.2,0.1,0.2,0.3,0.2,0.5c-0.5,1.3-1.1,2.6-2.1,3.6c-0.1,0.2-0.3,0.2-0.5,0.1l-2.7-1c-0.7,0.6-1.4,1-2.2,1.3l-0.6,2.8
	c0,0.2-0.2,0.3-0.4,0.4c-0.7,0.1-1.4,0.2-2.1,0.2s-1.4,0-2.1-0.2c-0.2,0-0.3-0.2-0.4-0.4l-0.6-2.8c-0.8-0.3-1.5-0.7-2.2-1.2l-2.7,1
	c-0.2,0.1-0.4,0-0.5-0.1c-1-1.1-1.6-2.3-2.1-3.6c0-0.3,0-0.5,0.2-0.6L2.8,13c-0.1-0.4-0.1-0.9-0.1-1.3c0-0.5,0-0.9,0.1-1.3L0.7,8.5
	C0.5,8.4,0.5,8.2,0.5,8C1,6.6,1.7,5.4,2.6,4.3c0.1-0.2,0.3-0.2,0.5-0.1l2.7,1c0.7-0.6,1.4-1,2.2-1.2l0.6-2.8
	C8.6,0.9,8.7,0.8,8.9,0.7L8.9,0.7z M11,5.4c3.4-0.1,6.3,2.7,6.4,6.1s-2.7,6.3-6.1,6.4c-0.1,0-0.2,0-0.2,0c-3.4,0.1-6.3-2.7-6.4-6.1
	s2.7-6.3,6.1-6.4C10.9,5.4,10.9,5.4,11,5.4z"/>
<polygon class="st1" points="14.1,9.1 7.9,9.1 7.9,10.5 10.2,10.5 10.2,14.2 11.8,14.2 11.8,10.5 14.1,10.5 "/>
</svg>
